HIERARCHY
ROOT Root
{
  OFFSET 0.0 0.0 0.0
  CHANNELS 6 Xposition Yposition Zposition Zrotation Yrotation Xrotation
  JOINT Hips
  {
    OFFSET 0.0 100.0 0.0
    CHANNELS 6 Xposition Yposition Zposition Zrotation Yrotation Xrotation
    JOINT Spine1
    {
      OFFSET 5.003913 -0.037094 -0.013727
      CHANNELS 3 Zrotation Yrotation Xrotation
      JOINT Spine2
      {
        OFFSET 7.125363 -1e-06 0.0
        CHANNELS 3 Zrotation Yrotation Xrotation
        JOINT Chest
        {
          OFFSET 7.594027 1e-06 0.0
          CHANNELS 3 Zrotation Yrotation Xrotation
          JOINT Neck1
          {
            OFFSET 26.313086 -0.460272 -0.181672
            CHANNELS 3 Zrotation Yrotation Xrotation
            JOINT Neck2
            {
              OFFSET 8.045911 0.0 0.0
              CHANNELS 3 Zrotation Yrotation Xrotation
              JOINT Head
              {
                OFFSET 6.432774 0.0 0.0
                CHANNELS 3 Zrotation Yrotation Xrotation
                JOINT HeadEnd
                {
                  OFFSET 16.169773 0.06451 0.00362
                  CHANNELS 3 Zrotation Yrotation Xrotation
                }
                JOINT Jaw
                {
                  OFFSET 0.108741 3.12938 0.002639
                  CHANNELS 3 Zrotation Yrotation Xrotation
                }
                JOINT LeftEye
                {
                  OFFSET 4.45173 8.166359 3.206392
                  CHANNELS 3 Zrotation Yrotation Xrotation
                }
                JOINT RightEye
                {
                  OFFSET 4.436895 8.135758 -3.222429
                  CHANNELS 3 Zrotation Yrotation Xrotation
                }
              }
            }
          }
          JOINT LeftShoulder
          {
            OFFSET 23.218927 5.195579 1.621656
            CHANNELS 3 Zrotation Yrotation Xrotation
            JOINT LeftArm
            {
              OFFSET 15.902118 2e-06 -2e-06
              CHANNELS 3 Zrotation Yrotation Xrotation
              JOINT LeftForeArm
              {
                OFFSET 28.739307 0.0 -1e-06
                CHANNELS 3 Zrotation Yrotation Xrotation
                JOINT LeftHand
                {
                  OFFSET 27.093981 -4e-06 0.0
                  CHANNELS 3 Zrotation Yrotation Xrotation
                  JOINT LeftHandThumb1
                  {
                    OFFSET 2.276781 3.380274 0.83384
                    CHANNELS 3 Zrotation Yrotation Xrotation
                    JOINT LeftHandThumb2
                    {
                      OFFSET 4.705309 -1e-06 -1e-06
                      CHANNELS 3 Zrotation Yrotation Xrotation
                      JOINT LeftHandThumb3
                      {
                        OFFSET 2.798515 0.0 3e-06
                        CHANNELS 3 Zrotation Yrotation Xrotation
                        JOINT LeftHandThumbEnd
                        {
                          OFFSET 3.180793 4e-06 -4e-06
                          CHANNELS 3 Zrotation Yrotation Xrotation
                        }
                      }
                    }
                  }
                  JOINT LeftHandIndex1
                  {
                    OFFSET 3.247786 2.352677 0.137192
                    CHANNELS 3 Zrotation Yrotation Xrotation
                    JOINT LeftHandIndex2
                    {
                      OFFSET 6.367095 1e-06 0.0
                      CHANNELS 3 Zrotation Yrotation Xrotation
                      JOINT LeftHandIndex3
                      {
                        OFFSET 3.662364 0.0 0.0
                        CHANNELS 3 Zrotation Yrotation Xrotation
                        JOINT LeftHandIndex4
                        {
                          OFFSET 2.329242 4e-06 -4e-06
                          CHANNELS 3 Zrotation Yrotation Xrotation
                          JOINT LeftHandIndexEnd
                          {
                            OFFSET 2.767823 1e-06 0.0
                            CHANNELS 3 Zrotation Yrotation Xrotation
                          }
                        }
                      }
                    }
                  }
                  JOINT LeftHandMiddle1
                  {
                    OFFSET 3.163612 0.945023 -0.406112
                    CHANNELS 3 Zrotation Yrotation Xrotation
                    JOINT LeftHandMiddle2
                    {
                      OFFSET 6.276789 3e-06 0.0
                      CHANNELS 3 Zrotation Yrotation Xrotation
                      JOINT LeftHandMiddle3
                      {
                        OFFSET 4.35652 -1e-06 4e-06
                        CHANNELS 3 Zrotation Yrotation Xrotation
                        JOINT LeftHandMiddle4
                        {
                          OFFSET 2.996877 0.0 8e-06
                          CHANNELS 3 Zrotation Yrotation Xrotation
                          JOINT LeftHandMiddleEnd
                          {
                            OFFSET 2.323256 3e-06 -4e-06
                            CHANNELS 3 Zrotation Yrotation Xrotation
                          }
                        }
                      }
                    }
                  }
                  JOINT LeftHandRing1
                  {
                    OFFSET 2.882606 -0.309162 0.107445
                    CHANNELS 3 Zrotation Yrotation Xrotation
                    JOINT LeftHandRing2
                    {
                      OFFSET 6.033198 0.0 4e-06
                      CHANNELS 3 Zrotation Yrotation Xrotation
                      JOINT LeftHandRing3
                      {
                        OFFSET 4.350578 3e-06 0.0
                        CHANNELS 3 Zrotation Yrotation Xrotation
                        JOINT LeftHandRing4
                        {
                          OFFSET 2.651321 2e-06 -7e-06
                          CHANNELS 3 Zrotation Yrotation Xrotation
                          JOINT LeftHandRingEnd
                          {
                            OFFSET 1.937663 1e-06 -4e-06
                            CHANNELS 3 Zrotation Yrotation Xrotation
                          }
                        }
                      }
                    }
                  }
                  JOINT LeftHandPinky1
                  {
                    OFFSET 2.865315 -1.525436 0.575687
                    CHANNELS 3 Zrotation Yrotation Xrotation
                    JOINT LeftHandPinky2
                    {
                      OFFSET 5.54936 1e-06 -8e-06
                      CHANNELS 3 Zrotation Yrotation Xrotation
                      JOINT LeftHandPinky3
                      {
                        OFFSET 3.070974 0.0 -4e-06
                        CHANNELS 3 Zrotation Yrotation Xrotation
                        JOINT LeftHandPinky4
                        {
                          OFFSET 1.549672 1e-06 0.0
                          CHANNELS 3 Zrotation Yrotation Xrotation
                          JOINT LeftHandPinkyEnd
                          {
                            OFFSET 1.952123 0.0 0.0
                            CHANNELS 3 Zrotation Yrotation Xrotation
                          }
                        }
                      }
                    }
                  }
                }
              }
            }
          }
          JOINT RightShoulder
          {
            OFFSET 23.161716 5.296122 -1.380114
            CHANNELS 3 Zrotation Yrotation Xrotation
            JOINT RightArm
            {
              OFFSET -16.027195 -2e-06 1.1e-05
              CHANNELS 3 Zrotation Yrotation Xrotation
              JOINT RightForeArm
              {
                OFFSET -28.736639 4e-06 2e-06
                CHANNELS 3 Zrotation Yrotation Xrotation
                JOINT RightHand
                {
                  OFFSET -27.133619 6e-06 0.0
                  CHANNELS 3 Zrotation Yrotation Xrotation
                  JOINT RightHandThumb1
                  {
                    OFFSET -2.274328 -3.351035 -0.83067
                    CHANNELS 3 Zrotation Yrotation Xrotation
                    JOINT RightHandThumb2
                    {
                      OFFSET -4.703594 -3e-06 2e-06
                      CHANNELS 3 Zrotation Yrotation Xrotation
                      JOINT RightHandThumb3
                      {
                        OFFSET -2.794935 -4e-06 -3e-06
                        CHANNELS 3 Zrotation Yrotation Xrotation
                        JOINT RightHandThumbEnd
                        {
                          OFFSET -3.183852 4e-06 1e-06
                          CHANNELS 3 Zrotation Yrotation Xrotation
                        }
                      }
                    }
                  }
                  JOINT RightHandIndex1
                  {
                    OFFSET -3.253496 -2.33755 -0.127667
                    CHANNELS 3 Zrotation Yrotation Xrotation
                    JOINT RightHandIndex2
                    {
                      OFFSET -6.344434 0.0 0.0
                      CHANNELS 3 Zrotation Yrotation Xrotation
                      JOINT RightHandIndex3
                      {
                        OFFSET -3.654871 0.0 -8e-06
                        CHANNELS 3 Zrotation Yrotation Xrotation
                        JOINT RightHandIndex4
                        {
                          OFFSET -2.327586 -1e-06 0.0
                          CHANNELS 3 Zrotation Yrotation Xrotation
                          JOINT RightHandIndexEnd
                          {
                            OFFSET -2.770001 3e-06 8e-06
                            CHANNELS 3 Zrotation Yrotation Xrotation
                          }
                        }
                      }
                    }
                  }
                  JOINT RightHandMiddle1
                  {
                    OFFSET -3.168223 -0.944764 0.411762
                    CHANNELS 3 Zrotation Yrotation Xrotation
                    JOINT RightHandMiddle2
                    {
                      OFFSET -6.266691 -1e-06 -4e-06
                      CHANNELS 3 Zrotation Yrotation Xrotation
                      JOINT RightHandMiddle3
                      {
                        OFFSET -4.348901 0.0 0.0
                        CHANNELS 3 Zrotation Yrotation Xrotation
                        JOINT RightHandMiddle4
                        {
                          OFFSET -3.00024 2e-06 -4e-06
                          CHANNELS 3 Zrotation Yrotation Xrotation
                          JOINT RightHandMiddleEnd
                          {
                            OFFSET -2.321477 -4e-06 -4e-06
                            CHANNELS 3 Zrotation Yrotation Xrotation
                          }
                        }
                      }
                    }
                  }
                  JOINT RightHandRing1
                  {
                    OFFSET -2.885654 0.293261 -0.119232
                    CHANNELS 3 Zrotation Yrotation Xrotation
                    JOINT RightHandRing2
                    {
                      OFFSET -6.032835 -1e-06 -4e-06
                      CHANNELS 3 Zrotation Yrotation Xrotation
                      JOINT RightHandRing3
                      {
                        OFFSET -4.33881 0.0 -4e-06
                        CHANNELS 3 Zrotation Yrotation Xrotation
                        JOINT RightHandRing4
                        {
                          OFFSET -2.654903 -4e-06 -4e-06
                          CHANNELS 3 Zrotation Yrotation Xrotation
                          JOINT RightHandRingEnd
                          {
                            OFFSET -1.935122 0.0 4e-06
                            CHANNELS 3 Zrotation Yrotation Xrotation
                          }
                        }
                      }
                    }
                  }
                  JOINT RightHandPinky1
                  {
                    OFFSET -2.866241 1.503904 -0.60527
                    CHANNELS 3 Zrotation Yrotation Xrotation
                    JOINT RightHandPinky2
                    {
                      OFFSET -5.553177 -2e-06 0.0
                      CHANNELS 3 Zrotation Yrotation Xrotation
                      JOINT RightHandPinky3
                      {
                        OFFSET -3.062664 -1e-06 -4e-06
                        CHANNELS 3 Zrotation Yrotation Xrotation
                        JOINT RightHandPinky4
                        {
                          OFFSET -1.546529 2e-06 4e-06
                          CHANNELS 3 Zrotation Yrotation Xrotation
                          JOINT RightHandPinkyEnd
                          {
                            OFFSET -1.952341 0.0 -4e-06
                            CHANNELS 3 Zrotation Yrotation Xrotation
                          }
                        }
                      }
                    }
                  }
                }
              }
            }
          }
        }
      }
    }
    JOINT LeftLeg
    {
      OFFSET -8.443107 2.567604 10.043214
      CHANNELS 3 Zrotation Yrotation Xrotation
      JOINT LeftShin
      {
        OFFSET 43.229198 1e-06 -1e-06
        CHANNELS 3 Zrotation Yrotation Xrotation
        JOINT LeftFoot
        {
          OFFSET 42.298611 1e-06 1e-06
          CHANNELS 3 Zrotation Yrotation Xrotation
          JOINT LeftToeBase
          {
            OFFSET 14.165858 1e-06 0.0
            CHANNELS 3 Zrotation Yrotation Xrotation
            JOINT LeftToeEnd
            {
              OFFSET 6.7141 -0.234461 0.0
              CHANNELS 3 Zrotation Yrotation Xrotation
            }
          }
        }
      }
    }
    JOINT RightLeg
    {
      OFFSET -8.303923 2.592729 -10.047278
      CHANNELS 3 Zrotation Yrotation Xrotation
      JOINT RightShin
      {
        OFFSET -43.369682 0.0 1e-06
        CHANNELS 3 Zrotation Yrotation Xrotation
        JOINT RightFoot
        {
          OFFSET -42.260784 4e-06 2e-06
          CHANNELS 3 Zrotation Yrotation Xrotation
          JOINT RightToeBase
          {
            OFFSET -14.222245 -2e-06 -1e-06
            CHANNELS 3 Zrotation Yrotation Xrotation
            JOINT RightToeEnd
            {
              OFFSET -6.660062 0.232574 -2e-06
              CHANNELS 3 Zrotation Yrotation Xrotation
            }
          }
        }
      }
    }
  }
}
MOTION
Frames: 4
Frame Time: 0.03333333333333333
0.0 0.0 0.0 0.0 -0.0 0.0 2.47956 99.115173 3.49273 90.497917 0.622832 89.937263 -5.860509 -0.267113 -0.090904 -13.334483 -0.494421 -0.149291 22.397863 0.891599 -1.720996 19.928093 -3.290177 2.520351 -2.618341 -0.897199 0.984006 -25.792513 -1.013567 0.662215 6e-06 0.0 0.0 -0.088593 0.037717 -0.014851 -0.03996 0.192799 0.005415 -0.069834 -0.118597 -0.023915 -119.8946 -72.215462 138.785599 39.34914 -58.32272 0.024927 27.211634 -0.075413 0.257523 2.131832 -3.735107 8.636169 17.636625 -26.322731 52.41119 -19.466652 -14.395594 29.410381 1e-06 -8.774819 -5e-06 15.973027 -18.214283 6.128591 -0.609776 -1.795653 -3.889325 -4.80709 -11.046809 -2.93785 5e-06 -20.976015 0.0 -5.01997 -25.033554 -4.031879 5e-06 1e-06 -0.0 -10.634533 -5.686971 -3.565588 10.573271 -17.922951 -3.113903 3e-06 -13.821205 -0.0 -0.501773 -31.181498 -4.02702 -11.077371 -59.569763 6.895795 -13.982712 -7.150197 -2.875043 13.772727 -8.401489 -3.218241 0.347733 -34.211552 0.771654 -0.963032 -17.73337 2.621021 1e-06 -1e-06 -1e-06 -17.346416 -20.095215 -4.201782 21.757555 -1.638373 3.866427 1e-06 -6.338824 -2e-06 -1.697589 -22.591743 -6.194009 1e-06 -4e-06 -1e-06 47.969177 -73.751518 151.706635 45.260262 -59.306187 -12.981874 21.295736 -0.225537 0.001025 2.595984 1.00645 6.771346 22.182116 -20.375895 49.933323 -16.701811 -16.743528 28.476528 -4e-06 -12.690599 -0.0 16.112406 -17.829138 2.813695 -0.105919 -1.513855 -4.275881 -5.03904 -5.612871 -2.953557 4e-06 -11.020523 -1e-06 -6.111296 -15.895329 -3.840472 0.0 -0.0 -1e-06 -10.283369 -5.680288 -4.341838 11.028293 -11.302404 -2.372633 -1.384268 -14.238579 -6.32012 -0.625438 -26.924181 -3.8276 -4.058438 -49.798626 -3.779526 -13.708523 -7.363475 -3.72094 18.14115 -14.052739 -3.242675 6e-06 -18.78727 -2e-06 -0.429712 -8.456043 2.555502 -1e-06 2e-06 0.0 -15.923532 -20.094482 -5.473586 30.419207 -7.190827 1.735925 4e-06 -8.162927 1e-06 -1.861903 -22.861469 -6.16794 1e-06 -7e-06 -3e-06 -176.5961 -4.157923 -7.513505 12.779872 -0.064452 0.05605 -84.640221 8.371714 -4.126685 -12.361187 1.528595 1.892812 -0.999999 0.0 0.0 3.451762 -3.204019 -1.293959 14.101797 -0.02122 0.072515 -85.806702 -2.379451 -6.00473 -11.406415 0.845417 1.569457 -1.000001 0.0 -0.0 
0.0 0.0 0.0 0.0 -0.0 0.0 2.525371 98.931007 4.661095 90.459312 0.57684 90.104057 -6.038426 -0.188031 -0.084971 -13.439145 -0.463727 -0.169331 22.30022 0.86499 -1.765571 20.952591 -3.386196 2.565468 -2.626437 -0.831622 0.924853 -25.16428 -0.975341 0.540644 6e-06 0.0 -0.0 -0.090532 0.037263 0.030384 -0.045961 0.179603 0.05318 -0.069904 -0.106618 0.017839 -120.070099 -71.984894 138.963226 39.384449 -58.289211 -0.337079 26.943365 -0.196235 0.165221 1.861632 -3.585918 9.36226 17.636633 -26.322733 52.411201 -19.46666 -14.3956 29.410389 1e-06 -8.774823 -2e-06 16.002649 -18.171337 6.098714 -0.609778 -1.795654 -3.889328 -4.80709 -11.046813 -2.937851 2e-06 -20.976019 1e-06 -5.019973 -25.03356 -4.031882 7e-06 1e-06 -0.0 -10.634535 -5.686972 -3.56559 10.573272 -17.922955 -3.113902 3e-06 -13.821209 -0.0 -0.501777 -31.181511 -4.027021 -11.062052 -59.478222 6.976281 -13.982718 -7.150198 -2.875042 13.772731 -8.401491 -3.218241 0.347735 -34.211555 0.771655 -0.963031 -17.733372 2.621021 1e-06 -1e-06 -2e-06 -17.346422 -20.095221 -4.201783 21.757561 -1.638374 3.866426 1e-06 -6.338824 -1e-06 -1.697592 -22.591747 -6.194005 0.0 -3e-06 -2e-06 48.215424 -73.552261 151.636368 44.820591 -59.286617 -12.728259 21.287146 -0.168876 0.024735 2.649301 1.132562 6.415026 22.182117 -20.375895 49.933327 -16.701817 -16.74353 28.476536 -3e-06 -12.690603 -0.0 16.150623 -17.820757 2.765651 -0.105918 -1.513855 -4.275883 -5.039042 -5.612873 -2.953557 2e-06 -11.020525 -2e-06 -6.1113 -15.895336 -3.840472 -0.0 1e-06 0.0 -10.283369 -5.680289 -4.341839 11.028295 -11.302404 -2.372635 -1.38427 -14.238581 -6.320121 -0.625439 -26.924191 -3.827603 -4.054737 -49.898354 -3.782864 -13.708525 -7.363478 -3.720942 18.141151 -14.052739 -3.242674 5e-06 -18.78727 -4e-06 -0.429712 -8.456045 2.555504 -1e-06 2e-06 1e-06 -15.923536 -20.094486 -5.473586 30.419214 -7.190826 1.735927 3e-06 -8.162927 1e-06 -1.861902 -22.861473 -6.167946 1e-06 -6e-06 -1e-06 -175.935516 -4.244013 -7.925696 12.911437 -0.07335 0.15296 -85.45871 8.703931 -4.24955 -12.409059 1.528155 1.901351 -0.999998 -0.0 -0.0 4.44852 -3.150014 -1.230042 13.650146 -0.019566 0.07377 -86.394241 -2.756455 -6.210308 -11.496999 0.829417 1.571072 -1.000001 -0.0 0.0 
0.0 0.0 0.0 0.0 -0.0 0.0 2.528367 98.670555 5.915333 90.307671 0.557076 90.277786 -6.221884 -0.083061 -0.08254 -13.54101 -0.447088 -0.218487 22.293098 0.916963 -1.795428 22.139029 -3.293379 2.586351 -2.671368 -0.790746 0.914156 -24.307137 -0.931336 0.397665 6e-06 -0.0 -0.0 -0.083412 0.034993 0.048706 -0.05589 0.166327 0.079222 -0.069355 -0.098512 0.026954 -120.179642 -71.741287 139.150482 39.619259 -58.155907 -0.659191 26.707413 -0.295463 0.088504 1.394116 -3.358016 9.982177 17.636625 -26.322729 52.411182 -19.466663 -14.395596 29.410385 0.0 -8.774821 -2e-06 15.996354 -18.188744 6.100939 -0.609775 -1.795652 -3.889324 -4.807087 -11.046807 -2.937853 4e-06 -20.976015 0.0 -5.019974 -25.033548 -4.031879 6e-06 2e-06 2e-06 -10.634531 -5.68697 -3.565583 10.573272 -17.922949 -3.113902 3e-06 -13.821209 1e-06 -0.501781 -31.181501 -4.027013 -11.102472 -59.392204 6.983758 -13.982712 -7.150197 -2.87504 13.772727 -8.401489 -3.218243 0.347733 -34.211544 0.771655 -0.963031 -17.73337 2.621017 1e-06 0.0 -1e-06 -17.346416 -20.095215 -4.201779 21.757557 -1.638373 3.866426 1e-06 -6.338823 -0.0 -1.697592 -22.591747 -6.194004 1e-06 -1e-06 -3e-06 48.370392 -73.441772 151.593979 44.349586 -59.328178 -12.632172 21.419464 -0.118508 0.012642 2.531204 1.290047 6.211732 22.182108 -20.375893 49.933319 -16.701807 -16.743526 28.476528 -3e-06 -12.6906 -2e-06 16.16276 -17.774965 2.721801 -0.105921 -1.513857 -4.275878 -5.03904 -5.61287 -2.953556 4e-06 -11.020523 -2e-06 -6.111297 -15.89533 -3.840469 -0.0 2e-06 -2e-06 -10.283369 -5.680287 -4.341835 11.028294 -11.302402 -2.372633 -1.384268 -14.238575 -6.320118 -0.625436 -26.924187 -3.8276 -4.019123 -49.823338 -3.84579 -13.708524 -7.363475 -3.720938 18.141148 -14.052736 -3.242674 6e-06 -18.787266 -2e-06 -0.42971 -8.456045 2.555504 -1e-06 2e-06 1e-06 -15.923534 -20.094481 -5.473582 30.419205 -7.190827 1.735926 6e-06 -8.162926 -0.0 -1.861903 -22.861464 -6.167938 0.0 -5e-06 -1e-06 -175.54129 -4.535265 -8.356734 13.783029 -0.105717 0.240246 -86.692558 9.065329 -4.391305 -12.366062 1.50651 1.910001 -0.999999 0.0 0.0 5.408259 -2.945841 -1.15167 13.460669 -0.009221 0.057693 -87.173592 -3.142702 -6.47267 -11.410201 0.829898 1.573273 -1.000002 0.0 0.0 
0.0 0.0 0.0 0.0 -0.0 0.0 2.463109 98.360306 7.126594 90.026939 0.613371 90.451714 -6.330367 0.030518 -0.075337 -13.628343 -0.436482 -0.264164 22.33482 1.042599 -1.832385 23.398346 -2.944177 2.546897 -2.689549 -0.797069 0.969857 -23.486801 -0.798279 0.291957 6e-06 -0.0 -0.0 -0.071188 0.029687 0.059648 -0.063283 0.152911 0.096456 -0.063886 -0.09628 0.030635 -119.881409 -71.588242 138.988144 40.114803 -58.027313 -0.93997 26.464195 -0.366267 0.029245 0.910756 -3.046816 10.626266 17.636621 -26.322723 52.411182 -19.466652 -14.395594 29.410378 -0.0 -8.774819 -2e-06 15.947939 -18.178247 6.125118 -0.609777 -1.795654 -3.889327 -4.807089 -11.046807 -2.937851 4e-06 -20.976011 -1e-06 -5.019971 -25.033552 -4.03188 7e-06 0.0 1e-06 -10.634533 -5.68697 -3.565587 10.573269 -17.922945 -3.1139 3e-06 -13.821205 -1e-06 -0.501779 -31.181498 -4.027017 -11.155663 -59.35199 7.032871 -13.982712 -7.150197 -2.875044 13.772725 -8.401489 -3.218239 0.34773 -34.211536 0.771658 -0.963028 -17.733366 2.621017 -0.0 -1e-06 -0.0 -17.346418 -20.095215 -4.201782 21.757555 -1.638373 3.866427 1e-06 -6.338822 -1e-06 -1.697589 -22.591738 -6.194003 -0.0 -2e-06 -2e-06 48.789658 -73.445793 151.320282 44.201595 -59.472412 -12.912098 21.570824 -0.034638 -0.006311 2.295559 1.56482 6.308416 22.182114 -20.375891 49.933323 -16.701817 -16.743528 28.476532 -3e-06 -12.690601 -2e-06 16.137053 -17.701658 2.700436 -0.105919 -1.513856 -4.27588 -5.039041 -5.612872 -2.953557 5e-06 -11.020525 -2e-06 -6.111296 -15.89533 -3.840473 -0.0 -0.0 -1e-06 -10.28337 -5.680288 -4.341837 11.028296 -11.302406 -2.372635 -1.384268 -14.238583 -6.320124 -0.625437 -26.924192 -3.827603 -3.974706 -49.694309 -3.884463 -13.708523 -7.363476 -3.720939 18.141151 -14.052741 -3.242675 7e-06 -18.78727 -4e-06 -0.429711 -8.456044 2.555506 -1e-06 1e-06 1e-06 -15.923534 -20.094484 -5.473585 30.41921 -7.190828 1.735925 5e-06 -8.162929 -1e-06 -1.8619 -22.861469 -6.167942 0.0 -6e-06 -1e-06 -175.281555 -5.066953 -8.854713 15.06185 -0.147143 0.321212 -88.13887 9.448536 -4.632096 -12.375539 1.480138 1.91234 -0.999998 -0.0 -0.0 6.334203 -2.561408 -1.129547 13.453511 0.000821 0.034006 -88.024628 -3.412824 -6.657388 -11.342854 0.82949 1.573553 -1.000002 -0.0 -0.0 
